<?xml version="1.0" encoding="utf-8"?>
<!-- Generator: Adobe Illustrator 25.3.1, SVG Export Plug-In . SVG Version: 6.00 Build 0)  -->
<svg version="1.1" id="Capa_1" xmlns="http://www.w3.org/2000/svg" xmlns:xlink="http://www.w3.org/1999/xlink" x="0px" y="0px"
	 viewBox="0 0 72 72" style="enable-background:new 0 0 72 72;" xml:space="preserve">
<g>
	<g>
		<path d="M53,27.4c-0.1-0.1-0.2-0.2-0.4-0.2l-28.9-2.6c0-0.4-0.2-0.8-0.5-1.1l-3.1-3.1c-0.3-0.3-0.7-0.5-1.2-0.5s-0.9,0.2-1.2,0.5
			c-0.3,0.3-0.5,0.7-0.5,1.2c0,0.4,0.2,0.9,0.5,1.2l3.1,3.1c0.3,0.3,0.7,0.5,1.2,0.5c0.2,0,0.3,0,0.5-0.1L27,40.7
			c0.4,1.2,1.4,2,2.6,2c0.1,0,0.1,0,0.2,0l19.8-1.4c1-0.1,1.9-0.9,2-1.9l1.5-11.5C53.1,27.6,53.1,27.5,53,27.4z M22.5,25
			c-0.1,0.1-0.3,0.2-0.4,0.2c-0.2,0-0.3-0.1-0.4-0.2L18.6,22c-0.1-0.1-0.2-0.3-0.2-0.4s0.1-0.3,0.2-0.4c0.1-0.1,0.3-0.2,0.4-0.2
			c0.2,0,0.3,0.1,0.4,0.2l3.1,3.1C22.8,24.4,22.8,24.8,22.5,25z M35.4,26.7l0.2,3.8l-4.9-0.2L30,26.2L35.4,26.7z M23.5,25.6l5.4,0.5
			l0.8,4.2l-4.8-0.2L23.5,25.6z M26.7,36.1l-1.5-5l4.7,0.2l0.9,4.7L26.7,36.1z M29.7,41.6c-0.8,0.1-1.5-0.4-1.8-1.2l-1-3.2l4-0.1
			l0.8,4.4L29.7,41.6z M30.9,31.4l4.8,0.2l0.3,4.4L31.8,36L30.9,31.4z M32.8,41.3L32,37l4-0.1l0.3,4.2L32.8,41.3z M41,40.7L37.3,41
			l-0.3-4.1l4.1-0.1L41,40.7z M41.2,35.8L37,35.9l-0.3-4.3l4.5,0.2L41.2,35.8z M41.3,30.7l-4.6-0.2l-0.2-3.8l4.9,0.4L41.3,30.7z
			 M46.1,40.4l-4,0.3l0.1-3.9l4.2-0.1L46.1,40.4z M46.4,35.7l-4.2,0.1l0.1-4l4.4,0.2L46.4,35.7z M46.8,30.9l-4.5-0.2l0.1-3.4
			l4.6,0.4L46.8,30.9z M50.6,39.1c-0.1,0.5-0.5,1-1.1,1l-2.4,0.2l0.3-3.6l3.5-0.1L50.6,39.1z M51,35.6l-3.5,0.1l0.3-3.7l3.7,0.1
			L51,35.6z M51.6,31.1l-3.7-0.1l0.3-3.1l3.9,0.4L51.6,31.1z"/>
	</g>
</g>
<g>
	<g>
		<path d="M48.1,50.7v-1.3h1.2l0,0c0.3,0,0.5-0.2,0.5-0.5s-0.2-0.5-0.5-0.5H27.4c-0.2,0-0.4-0.1-0.5-0.3c-0.1-0.2-0.1-0.4-0.1-0.6
			l1.5-3.4c0.1-0.3,0-0.6-0.3-0.7c-0.3-0.1-0.6,0-0.7,0.3l-1.5,3.4c-0.2,0.5-0.2,1.1,0.1,1.6c0.3,0.5,0.8,0.7,1.4,0.7H28v1.3
			c-1,0.2-1.7,1.1-1.7,2.1c0,1.2,1,2.2,2.2,2.2c1.2,0,2.2-1,2.2-2.2c0-1-0.7-1.9-1.7-2.1v-1.3h18v1.3c-1,0.2-1.7,1.1-1.7,2.1
			c0,1.2,1,2.2,2.2,2.2c1.2,0,2.2-1,2.2-2.2C49.7,51.8,49,50.9,48.1,50.7z M29.7,52.9c0,0.6-0.5,1.2-1.2,1.2c-0.6,0-1.2-0.5-1.2-1.2
			s0.5-1.2,1.2-1.2C29.2,51.7,29.7,52.2,29.7,52.9z M47.5,54c-0.6,0-1.2-0.5-1.2-1.2s0.5-1.2,1.2-1.2c0.6,0,1.2,0.5,1.2,1.2
			C48.7,53.5,48.2,54,47.5,54z"/>
	</g>
</g>
</svg>
